<svg viewBox="0 0 1420 1000" fill="none" xmlns="http://www.w3.org/2000/svg">
<rect x="-217.293" y="597" width="1311.39" height="1311.39" rx="299.5" transform="rotate(-45 -217.293 597)" fill="url(#paint0_linear)" stroke="url(#paint1_linear)"/>
<rect x="176.707" y="597" width="754.19" height="754.19" rx="119.5" transform="rotate(-45 176.707 597)" fill="url(#paint2_linear)" stroke="url(#paint3_linear)"/>
<rect x="369.707" y="597" width="480.94" height="480.94" rx="60.5" transform="rotate(-45 369.707 597)" fill="url(#paint4_linear)" stroke="url(#paint5_linear)"/>
<rect x="556.707" y="597" width="217.141" height="217.141" rx="23.5" transform="rotate(-45 556.707 597)" fill="url(#paint6_linear)" stroke="url(#paint7_linear)"/>
<g filter="url(#filter0_f)">
<ellipse cx="1428.5" cy="252.49" rx="430.5" ry="509.5" transform="rotate(-30 1428.5 252.49)" fill="url(#paint8_radial)" fill-opacity="0.2"/>
</g>
<g filter="url(#filter1_f)">
<ellipse cx="454.5" cy="-74.5" rx="523.5" ry="507.5" fill="url(#paint9_radial)" fill-opacity="0.2"/>
</g>
<circle cx="502" cy="535" r="1" fill="#2F506F"/>
<circle cx="923" cy="155" r="1" fill="#2F506F"/>
<circle cx="1286" cy="596" r="1" fill="#7BA4C7"/>
<circle cx="433" cy="106" r="1" fill="#7BA4C7"/>
<circle cx="1343" cy="114" r="1" fill="#7BA4C7"/>
<circle cx="31" cy="694" r="1" fill="#D1D7DC"/>
<circle cx="392" cy="188" r="1" fill="#D1D7DC"/>
<circle cx="570.5" cy="536.5" r="0.5" fill="white"/>
<circle cx="1010.5" cy="189.5" r="0.5" fill="white"/>
<circle cx="1272.5" cy="472.5" r="0.5" fill="#2F506F"/>
<circle cx="591.5" cy="192.5" r="0.5" fill="#2F506F"/>
<circle cx="657.5" cy="115.5" r="0.5" fill="#2F506F"/>
<circle cx="272.5" cy="678.5" r="0.5" fill="#2F506F"/>
<circle cx="1199.5" cy="131.5" r="0.5" fill="#2F506F"/>
<circle cx="1334.5" cy="861.5" r="0.5" fill="#2F506F"/>
<circle cx="46.5" cy="254.5" r="0.5" fill="#2F506F"/>
<circle cx="1309.5" cy="168.5" r="0.5" fill="#193650"/>
<circle cx="454.5" cy="560.5" r="0.5" fill="white"/>
<circle cx="1062.5" cy="2226.5" r="0.5" fill="white"/>
<g filter="url(#filter2_b)">
<path d="M725.384 408L727.282 405.322L711.202 331L689.316 331L677.927 376.419L666.425 331L644.539 331L628.459 405.322L630.358 408H641.524L655.147 343.275H656.599L671.227 400.188H684.515L699.143 343.275H700.594L714.217 408H725.384Z" fill="url(#paint10_linear)"/>
<path d="M301 333.678L302.898 331H314.065L327.688 395.725H329.139L343.767 338.812H357.055L371.683 395.725H373.135L386.758 331H397.924L399.823 333.678L383.743 408H361.857L350.356 362.581L338.966 408H317.08L301 333.678Z" fill="url(#paint11_linear)"/>
<path fill-rule="evenodd" clip-rule="evenodd" d="M542.862 408V331H584.341C596.4 331 602.43 337.026 602.43 349.078V361.688C602.43 371.137 598.708 376.865 591.264 378.874L604.663 405.099L602.988 408H591.375L577.082 379.767H556.485V408H542.862ZM556.485 367.491H583.894C587.169 367.491 588.807 365.855 588.807 362.581V348.186C588.807 344.912 587.169 343.275 583.894 343.275H556.485V367.491Z" fill="url(#paint12_linear)"/>
<path d="M761.199 331V408H774.822V374.187H815.906V408H829.529V331H815.906V361.912H774.822V331H761.199Z" fill="url(#paint13_linear)"/>
<path d="M974.495 408V331H988.117V395.725H1022.96V408H974.495Z" fill="url(#paint14_linear)"/>
<path d="M1056.6 331V408H1117V395.725H1070.22V374.187H1099.83V361.912H1070.22V343.275H1117V331H1056.6Z" fill="url(#paint15_linear)"/>
</g>
<path fill-rule="evenodd" clip-rule="evenodd" d="M460.495 342.073L442.269 360.091C437.572 364.735 437.572 372.265 442.269 376.909L460.495 394.927C465.192 399.571 472.808 399.571 477.505 394.927L495.731 376.909C500.428 372.265 500.428 364.735 495.731 360.091L477.505 342.073C472.808 337.429 465.192 337.429 460.495 342.073ZM432.549 350.482C422.484 360.433 422.484 376.567 432.549 386.518L450.775 404.537C460.84 414.488 477.16 414.488 487.225 404.537L505.451 386.518C515.516 376.567 515.516 360.433 505.451 350.482L487.225 332.463C477.16 322.512 460.84 322.512 450.775 332.463L432.549 350.482Z" fill="#DC1FFF"/>
<path fill-rule="evenodd" clip-rule="evenodd" d="M892.495 342.073L874.269 360.091C869.572 364.735 869.572 372.265 874.269 376.909L892.495 394.927C897.192 399.571 904.808 399.571 909.505 394.927L927.731 376.909C932.428 372.265 932.428 364.735 927.731 360.091L909.505 342.073C904.808 337.429 897.192 337.429 892.495 342.073ZM864.549 350.482C854.484 360.433 854.484 376.567 864.549 386.518L882.775 404.537C892.84 414.488 909.16 414.488 919.225 404.537L937.451 386.518C947.516 376.567 947.516 360.433 937.451 350.482L919.225 332.463C909.16 322.512 892.84 322.512 882.775 332.463L864.549 350.482Z" fill="#00FFA3"/>
<path d="M450.811 248H457.924V246.75H452.22V242.795H457.47V241.545H452.22V237.614H457.833V236.364H450.811V248ZM472.537 237.614H476.196V248H477.605V237.614H481.264V236.364H472.537V237.614ZM496.239 248H497.648V242.795H503.852V248H505.261V236.364H503.852V241.545H497.648V236.364H496.239V248ZM520.883 248H527.996V246.75H522.292V242.795H527.542V241.545H522.292V237.614H527.905V236.364H520.883V248ZM543.245 248H544.654V243.455H547.2C547.302 243.455 547.398 243.455 547.495 243.449L549.95 248H551.586L548.955 243.193C550.438 242.688 551.131 241.477 551.131 239.932C551.131 237.875 549.904 236.364 547.177 236.364H543.245V248ZM544.654 242.182V237.614H547.131C549.018 237.614 549.745 238.534 549.745 239.932C549.745 241.33 549.018 242.182 547.154 242.182H544.654ZM566.279 248H573.393V246.75H567.688V242.795H572.938V241.545H567.688V237.614H573.302V236.364H566.279V248ZM596.278 236.364V243.955C596.278 245.659 595.108 246.886 593.165 246.886C591.221 246.886 590.051 245.659 590.051 243.955V236.364H588.642V244.068C588.642 246.455 590.426 248.205 593.165 248.205C595.903 248.205 597.687 246.455 597.687 244.068V236.364H596.278ZM613.301 236.364V248H614.619V239.159H614.733L618.369 248H619.642L623.279 239.159H623.392V248H624.71V236.364H623.029L619.074 246.023H618.938L614.983 236.364H613.301ZM660.863 245.955H662.136V242.841H665.249V241.568H662.136V238.455H660.863V241.568H657.749V242.841H660.863V245.955ZM704.646 239.273H706.01C705.947 237.517 704.328 236.205 702.078 236.205C699.851 236.205 698.101 237.5 698.101 239.455C698.101 241.023 699.237 241.955 701.055 242.477L702.487 242.886C703.714 243.227 704.805 243.659 704.805 244.818C704.805 246.091 703.578 246.932 701.964 246.932C700.578 246.932 699.351 246.318 699.237 245H697.783C697.919 246.909 699.464 248.205 701.964 248.205C704.646 248.205 706.169 246.727 706.169 244.841C706.169 242.659 704.101 241.955 702.896 241.636L701.714 241.318C700.851 241.091 699.464 240.636 699.464 239.386C699.464 238.273 700.487 237.455 702.033 237.455C703.442 237.455 704.51 238.125 704.646 239.273ZM731.104 242.182C731.104 238.5 728.945 236.205 725.967 236.205C722.99 236.205 720.831 238.5 720.831 242.182C720.831 245.864 722.99 248.159 725.967 248.159C728.945 248.159 731.104 245.864 731.104 242.182ZM729.74 242.182C729.74 245.205 728.081 246.841 725.967 246.841C723.854 246.841 722.195 245.205 722.195 242.182C722.195 239.159 723.854 237.523 725.967 237.523C728.081 237.523 729.74 239.159 729.74 242.182ZM746.273 248H753.091V246.75H747.682V236.364H746.273V248ZM769.285 248L770.455 244.705H775.16L776.33 248H777.808L773.535 236.364H772.08L767.808 248H769.285ZM770.898 243.455L772.762 238.205H772.853L774.717 243.455H770.898ZM801.647 236.364H800.261V245.523H800.147L793.784 236.364H792.42V248H793.829V238.864H793.943L800.284 248H801.647V236.364ZM817.744 248L818.915 244.705H823.619L824.79 248H826.267L821.994 236.364H820.54L816.267 248H817.744ZM819.358 243.455L821.221 238.205H821.312L823.176 243.455H819.358ZM858.179 248H862.384C865.134 248 866.27 246.659 866.27 244.909C866.27 243.068 864.998 242.068 863.929 242V241.886C864.929 241.614 865.816 240.955 865.816 239.455C865.816 237.75 864.679 236.364 862.248 236.364H858.179V248ZM859.588 246.75V242.705H862.452C863.975 242.705 864.929 243.727 864.929 244.909C864.929 245.932 864.225 246.75 862.384 246.75H859.588ZM859.588 241.477V237.614H862.248C863.793 237.614 864.475 238.432 864.475 239.455C864.475 240.682 863.475 241.477 862.202 241.477H859.588ZM881.386 248H882.795V243.455H885.34C885.442 243.455 885.539 243.455 885.636 243.449L888.09 248H889.727L887.096 243.193C888.579 242.688 889.272 241.477 889.272 239.932C889.272 237.875 888.045 236.364 885.317 236.364H881.386V248ZM882.795 242.182V237.614H885.272C887.158 237.614 887.886 238.534 887.886 239.932C887.886 241.33 887.158 242.182 885.295 242.182H882.795ZM905.829 236.364H904.42V248H905.829V236.364ZM925.045 248C928.591 248 930.591 245.795 930.591 242.159C930.591 238.545 928.591 236.364 925.204 236.364H921.454V248H925.045ZM922.864 246.75V237.614H925.114C927.841 237.614 929.227 239.341 929.227 242.159C929.227 245 927.841 246.75 924.954 246.75H922.864ZM953.709 240H955.163C954.732 237.75 952.845 236.205 950.391 236.205C947.408 236.205 945.3 238.5 945.3 242.182C945.3 245.864 947.391 248.159 950.482 248.159C953.254 248.159 955.232 246.312 955.232 243.432V242.182H950.8V243.432H953.868C953.828 245.523 952.453 246.841 950.482 246.841C948.323 246.841 946.663 245.205 946.663 242.182C946.663 239.159 948.323 237.523 950.391 237.523C952.073 237.523 953.215 238.472 953.709 240ZM970.445 248H977.559V246.75H971.854V242.795H977.104V241.545H971.854V237.614H977.468V236.364H970.445V248Z" fill="url(#paint16_linear)"/>
<defs>
<filter id="filter0_f" x="946.909" y="-268.564" width="963.182" height="1042.11" filterUnits="userSpaceOnUse" color-interpolation-filters="sRGB">
<feFlood flood-opacity="0" result="BackgroundImageFix"/>
<feBlend mode="normal" in="SourceGraphic" in2="BackgroundImageFix" result="shape"/>
<feGaussianBlur stdDeviation="15" result="effect1_foregroundBlur"/>
</filter>
<filter id="filter1_f" x="-99" y="-612" width="1107" height="1075" filterUnits="userSpaceOnUse" color-interpolation-filters="sRGB">
<feFlood flood-opacity="0" result="BackgroundImageFix"/>
<feBlend mode="normal" in="SourceGraphic" in2="BackgroundImageFix" result="shape"/>
<feGaussianBlur stdDeviation="15" result="effect1_foregroundBlur"/>
</filter>
<filter id="filter2_b" x="295" y="325" width="828" height="89" filterUnits="userSpaceOnUse" color-interpolation-filters="sRGB">
<feFlood flood-opacity="0" result="BackgroundImageFix"/>
<feGaussianBlur in="BackgroundImage" stdDeviation="3"/>
<feComposite in2="SourceAlpha" operator="in" result="effect1_backgroundBlur"/>
<feBlend mode="normal" in="SourceGraphic" in2="effect1_backgroundBlur" result="shape"/>
</filter>
<linearGradient id="paint0_linear" x1="1158.03" y1="147.28" x2="619.214" y2="1495.03" gradientUnits="userSpaceOnUse">
<stop offset="0.0877329" stop-color="#0A1F31" stop-opacity="0.8"/>
<stop offset="1"/>
</linearGradient>
<linearGradient id="paint1_linear" x1="767.46" y1="-56.8599" x2="781.471" y2="1152.78" gradientUnits="userSpaceOnUse">
<stop stop-color="#3D73FF"/>
<stop offset="1" stop-color="#061019" stop-opacity="0"/>
</linearGradient>
<linearGradient id="paint2_linear" x1="811.046" y1="386.358" x2="814.283" y2="1442.22" gradientUnits="userSpaceOnUse">
<stop offset="0.0877329" stop-color="#04090E" stop-opacity="0.8"/>
<stop offset="1"/>
</linearGradient>
<linearGradient id="paint3_linear" x1="743.064" y1="220.748" x2="751.127" y2="916.813" gradientUnits="userSpaceOnUse">
<stop stop-color="#3D73FF"/>
<stop offset="1" stop-color="#061019" stop-opacity="0"/>
</linearGradient>
<linearGradient id="paint4_linear" x1="1716.44" y1="-27.5304" x2="593.196" y2="1095.71" gradientUnits="userSpaceOnUse">
<stop offset="0.0877329" stop-color="#0D1A25"/>
<stop offset="1" stop-color="#070D12" stop-opacity="0.4"/>
</linearGradient>
<linearGradient id="paint5_linear" x1="1676.78" y1="216.775" x2="596.65" y2="1040.19" gradientUnits="userSpaceOnUse">
<stop stop-color="#CC3DFF"/>
<stop offset="1" stop-color="#061019"/>
</linearGradient>
<linearGradient id="paint6_linear" x1="1080.23" y1="399.981" x2="512.159" y2="749.735" gradientUnits="userSpaceOnUse">
<stop offset="0.0364583" stop-color="#193650"/>
<stop offset="1" stop-color="#080E14" stop-opacity="0"/>
</linearGradient>
<linearGradient id="paint7_linear" x1="1268.76" y1="564.025" x2="740.555" y2="781.555" gradientUnits="userSpaceOnUse">
<stop stop-color="#3DBDFF"/>
<stop offset="1" stop-color="#061019"/>
</linearGradient>
<radialGradient id="paint8_radial" cx="0" cy="0" r="1" gradientUnits="userSpaceOnUse" gradientTransform="translate(1428.5 252.49) rotate(90) scale(509.5 430.5)">
<stop stop-color="#0038FF"/>
<stop offset="1" stop-opacity="0"/>
</radialGradient>
<radialGradient id="paint9_radial" cx="0" cy="0" r="1" gradientUnits="userSpaceOnUse" gradientTransform="translate(453.807 -75.1924) rotate(89.9218) scale(508.193 524.215)">
<stop stop-color="#E451FF"/>
<stop offset="1" stop-color="#09020C" stop-opacity="0"/>
</radialGradient>
<linearGradient id="paint10_linear" x1="709" y1="303" x2="709" y2="429.791" gradientUnits="userSpaceOnUse">
<stop stop-color="white"/>
<stop offset="1" stop-color="#010202" stop-opacity="0"/>
</linearGradient>
<linearGradient id="paint11_linear" x1="709" y1="303" x2="709" y2="429.791" gradientUnits="userSpaceOnUse">
<stop stop-color="white"/>
<stop offset="1" stop-color="#010202" stop-opacity="0"/>
</linearGradient>
<linearGradient id="paint12_linear" x1="709" y1="303" x2="709" y2="429.791" gradientUnits="userSpaceOnUse">
<stop stop-color="white"/>
<stop offset="1" stop-color="#010202" stop-opacity="0"/>
</linearGradient>
<linearGradient id="paint13_linear" x1="709" y1="303" x2="709" y2="429.791" gradientUnits="userSpaceOnUse">
<stop stop-color="white"/>
<stop offset="1" stop-color="#010202" stop-opacity="0"/>
</linearGradient>
<linearGradient id="paint14_linear" x1="709" y1="303" x2="709" y2="429.791" gradientUnits="userSpaceOnUse">
<stop stop-color="white"/>
<stop offset="1" stop-color="#010202" stop-opacity="0"/>
</linearGradient>
<linearGradient id="paint15_linear" x1="709" y1="303" x2="709" y2="429.791" gradientUnits="userSpaceOnUse">
<stop stop-color="white"/>
<stop offset="1" stop-color="#010202" stop-opacity="0"/>
</linearGradient>
<linearGradient id="paint16_linear" x1="433.986" y1="252" x2="1009.03" y2="252" gradientUnits="userSpaceOnUse">
<stop offset="0.130208" stop-color="#DC1FFF"/>
<stop offset="0.5" stop-color="#4DA9FF"/>
<stop offset="0.885417" stop-color="#00CC82"/>
</linearGradient>
</defs>
</svg>
