<svg viewBox="0 0 224 64" fill="none" xmlns="http://www.w3.org/2000/svg">
<path d="M0 19.2C0 12.4794 0 9.11905 1.30792 6.55211C2.4584 4.29417 4.29417 2.4584 6.55211 1.30792C9.11905 0 12.4794 0 19.2 0H204.8C211.521 0 214.881 0 217.448 1.30792C219.706 2.4584 221.542 4.29417 222.692 6.55211C224 9.11905 224 12.4794 224 19.2V44.8C224 51.5206 224 54.8809 222.692 57.4479C221.542 59.7058 219.706 61.5416 217.448 62.6921C214.881 64 211.521 64 204.8 64H19.2C12.4794 64 9.11905 64 6.55211 62.6921C4.29417 61.5416 2.4584 59.7058 1.30792 57.4479C0 54.8809 0 51.5206 0 44.8V19.2Z" fill="#00CC82"/>
<path d="M56.7287 38.716C55.5407 38.716 54.5027 38.446 53.6147 37.906C52.7267 37.366 52.0367 36.616 51.5447 35.656C51.0527 34.684 50.8067 33.556 50.8067 32.272C50.8067 30.976 51.0587 29.836 51.5627 28.852C52.0787 27.856 52.8047 27.082 53.7407 26.53C54.6887 25.966 55.8107 25.684 57.1067 25.684C58.5827 25.684 59.8067 26.038 60.7787 26.746C61.7507 27.454 62.3807 28.432 62.6687 29.68H60.0947C59.9027 29.092 59.5547 28.636 59.0507 28.312C58.5467 27.976 57.8987 27.808 57.1067 27.808C55.8467 27.808 54.8747 28.21 54.1907 29.014C53.5067 29.806 53.1647 30.898 53.1647 32.29C53.1647 33.682 53.5007 34.762 54.1727 35.53C54.8567 36.286 55.7807 36.664 56.9447 36.664C58.0847 36.664 58.9427 36.358 59.5187 35.746C60.1067 35.122 60.4607 34.306 60.5807 33.298H57.3947V31.57H62.9027V38.5H60.7787L60.5987 36.844C60.1907 37.444 59.6807 37.906 59.0687 38.23C58.4567 38.554 57.6767 38.716 56.7287 38.716ZM65.8626 38.5V25.9H74.0886V27.754H68.1666V31.21H73.5486V33.01H68.1666V36.646H74.0886V38.5H65.8626ZM79.9228 38.5V27.754H76.2508V25.9H85.9168V27.754H82.2268V38.5H79.9228ZM97.6546 38.716C96.7306 38.716 95.9146 38.56 95.2066 38.248C94.4986 37.924 93.9406 37.468 93.5326 36.88C93.1246 36.28 92.9146 35.554 92.9026 34.702H95.3326C95.3566 35.29 95.5666 35.788 95.9626 36.196C96.3706 36.592 96.9286 36.79 97.6366 36.79C98.2486 36.79 98.7346 36.646 99.0946 36.358C99.4546 36.058 99.6346 35.662 99.6346 35.17C99.6346 34.654 99.4726 34.252 99.1486 33.964C98.8366 33.676 98.4166 33.442 97.8886 33.262C97.3606 33.082 96.7966 32.89 96.1966 32.686C95.2246 32.35 94.4806 31.918 93.9646 31.39C93.4606 30.862 93.2086 30.16 93.2086 29.284C93.1966 28.54 93.3706 27.904 93.7306 27.376C94.1026 26.836 94.6066 26.422 95.2426 26.134C95.8786 25.834 96.6106 25.684 97.4386 25.684C98.2786 25.684 99.0166 25.834 99.6526 26.134C100.301 26.434 100.805 26.854 101.165 27.394C101.537 27.934 101.735 28.576 101.759 29.32H99.2926C99.2806 28.876 99.1066 28.486 98.7706 28.15C98.4466 27.802 97.9906 27.628 97.4026 27.628C96.8986 27.616 96.4726 27.742 96.1246 28.006C95.7886 28.258 95.6206 28.63 95.6206 29.122C95.6206 29.542 95.7526 29.878 96.0166 30.13C96.2806 30.37 96.6406 30.574 97.0966 30.742C97.5526 30.91 98.0746 31.09 98.6626 31.282C99.2866 31.498 99.8566 31.75 100.373 32.038C100.889 32.326 101.303 32.71 101.615 33.19C101.927 33.658 102.083 34.264 102.083 35.008C102.083 35.668 101.915 36.28 101.579 36.844C101.243 37.408 100.745 37.864 100.085 38.212C99.4246 38.548 98.6146 38.716 97.6546 38.716ZM107.589 38.5V27.754H103.917V25.9H113.583V27.754H109.893V38.5H107.589ZM113.863 38.5L118.471 25.9H121.063L125.671 38.5H123.223L122.215 35.584H117.301L116.275 38.5H113.863ZM117.931 33.784H121.585L119.749 28.546L117.931 33.784ZM128.015 38.5V25.9H132.641C133.649 25.9 134.477 26.074 135.125 26.422C135.785 26.758 136.277 27.22 136.601 27.808C136.925 28.384 137.087 29.026 137.087 29.734C137.087 30.502 136.883 31.204 136.475 31.84C136.079 32.476 135.455 32.938 134.603 33.226L137.213 38.5H134.567L132.227 33.532H130.319V38.5H128.015ZM130.319 31.84H132.497C133.265 31.84 133.829 31.654 134.189 31.282C134.549 30.91 134.729 30.418 134.729 29.806C134.729 29.206 134.549 28.726 134.189 28.366C133.841 28.006 133.271 27.826 132.479 27.826H130.319V31.84ZM142.883 38.5V27.754H139.211V25.9H148.877V27.754H145.187V38.5H142.883ZM151.304 38.5V25.9H159.53V27.754H153.608V31.21H158.99V33.01H153.608V36.646H159.53V38.5H151.304ZM162.43 38.5V25.9H166.732C168.208 25.9 169.42 26.164 170.368 26.692C171.328 27.208 172.036 27.94 172.492 28.888C172.96 29.824 173.194 30.928 173.194 32.2C173.194 33.472 172.96 34.582 172.492 35.53C172.036 36.466 171.328 37.198 170.368 37.726C169.42 38.242 168.208 38.5 166.732 38.5H162.43ZM164.734 36.52H166.624C167.68 36.52 168.514 36.352 169.126 36.016C169.738 35.668 170.176 35.176 170.44 34.54C170.704 33.892 170.836 33.112 170.836 32.2C170.836 31.3 170.704 30.526 170.44 29.878C170.176 29.23 169.738 28.732 169.126 28.384C168.514 28.036 167.68 27.862 166.624 27.862H164.734V36.52Z" fill="white"/>
</svg>
