<svg xmlns="http://www.w3.org/2000/svg" version="1.1" xmlns:xlink="http://www.w3.org/1999/xlink" xmlns:svgjs="http://svgjs.com/svgjs" width="512" height="512"><svg width="512" height="512" viewBox="0 0 512 512" fill="none" xmlns="http://www.w3.org/2000/svg">
<path d="M423.543 280.468L420.957 309.065L416.403 337.464L409.893 365.551L409.643 366.352L409.341 367.143L408.993 367.908L408.587 368.663L408.129 369.386L407.619 370.084L407.067 370.755L406.469 371.39L405.829 371.988L405.147 372.556L404.423 373.081L403.669 373.565L402.883 374.008L387.01 381.731L370.638 388.553L353.823 394.45L336.634 399.404L319.138 403.385L301.397 406.388L283.484 408.397L265.785 409.344L265.467 409.401H256.443H247.419L247.107 409.344L229.403 408.397L211.49 406.388L193.754 403.385L176.253 399.404L159.069 394.45L142.249 388.553L125.876 381.731L110.004 374.008L109.223 373.565L108.463 373.081L107.74 372.556L107.063 371.988L106.418 371.39L105.82 370.755L105.268 370.084L104.758 369.386L104.3 368.663L103.894 367.908L103.545 367.143L103.244 366.352L102.994 365.551L96.4834 337.464L91.9298 309.065L89.3433 280.468L88.7396 251.783L90.1187 223.118L93.4754 194.589L98.7993 166.3L99.0022 165.524L99.252 164.754L99.4654 164.223L99.5539 163.999L99.9078 163.266L100.314 162.553L106.148 153.586L112.616 144.983L119.699 136.776L127.36 129.001L130.602 126.113L135.567 121.69L144.289 114.877L153.479 108.58L163.112 102.84L173.141 97.6724L183.518 93.1032L194.207 89.1533L205.156 85.833L216.33 83.158L227.664 81.1441L239.129 79.791L250.662 79.1197H256.443H262.225L273.758 79.791L285.222 81.1441L296.562 83.158L307.73 85.833L318.685 89.1533L329.369 93.1032L339.746 97.6724L349.775 102.84L359.408 108.58L368.598 114.877L377.32 121.69L382.285 126.113L385.527 129.001L393.188 136.776L400.271 144.983L406.739 153.586L412.578 162.553L412.979 163.266L413.333 163.999L413.427 164.223L413.635 164.754L413.89 165.524L414.093 166.3L419.411 194.589L422.773 223.118L424.147 251.783L423.543 280.468ZM488.772 223.655L488.496 221.198L488.07 218.773L487.487 216.369L486.753 214.006L485.863 211.695L484.828 209.442L483.651 207.251L482.34 205.138L480.898 203.103L479.322 201.162L477.625 199.32L475.819 197.582L473.899 195.958L471.88 194.449L469.772 193.065L466.785 191.352L466.015 190.848L465.286 190.301L464.589 189.708L463.928 189.078L463.314 188.412L462.741 187.704L462.221 186.965L461.742 186.195L461.315 185.399L460.94 184.582L460.618 183.744L458.328 177.796L455.643 172.009L452.567 166.404L449.127 161.002L445.328 155.829L441.191 150.906L436.72 146.258L431.953 141.908L426.905 137.859L426.255 137.344L425.63 136.792L425.042 136.209L424.496 135.595L423.975 134.95L423.497 134.278L423.059 133.581L416.674 123.49L409.622 113.816L401.957 104.594L393.698 95.8614L384.871 87.6597L375.53 80.0147L365.705 72.9631L355.432 66.536L344.758 60.749L333.725 55.6385L322.375 51.215L310.759 47.5044L298.92 44.5172L286.909 42.2639L274.772 40.7546L262.558 40H256.443H250.329L238.114 40.7546L225.978 42.2639L213.967 44.5172L202.128 47.5044L190.517 51.215L179.162 55.6385L168.129 60.749L157.455 66.536L147.182 72.9631L137.357 80.0147L128.015 87.6597L119.194 95.8614L110.935 104.594L103.264 113.816L96.218 123.49L89.8273 133.581L89.3902 134.278L88.9114 134.95L88.3962 135.595L87.8445 136.209L87.2617 136.792L86.6424 137.344L85.9867 137.859L80.9334 141.908L76.1664 146.258L71.7064 150.906L67.564 155.829L63.7597 161.002L60.3198 166.404L57.2441 172.009L54.564 177.796L52.2689 183.744L51.9515 184.582L51.5716 185.399L51.1449 186.195L50.6713 186.965L50.1457 187.704L49.5784 188.412L48.9591 189.078L48.3034 189.708L47.606 190.301L46.8723 190.848L46.1072 191.352L43.1149 193.065L41.0072 194.449L38.988 195.958L37.0676 197.582L35.267 199.32L33.5653 201.162L31.9936 203.103L30.5468 205.138L29.2354 207.251L28.0592 209.442L27.0288 211.695L26.1389 214.006L25.3999 216.369L24.8171 218.773L24.3903 221.198L24.1145 223.655L24 226.116L24.0364 228.583L29.2562 341.164L29.3915 342.876L29.6361 344.583L29.9848 346.275L30.4375 347.935L30.9944 349.569L31.6605 351.167L32.4203 352.728L33.279 354.232L34.2314 355.689L36.2454 358.385L38.4207 360.961L40.7574 363.402L43.245 365.702L45.8679 367.851L48.6209 369.844L52.2637 372.16L52.9975 372.691L53.7001 373.269L54.361 373.883L54.9803 374.538L55.558 375.225L56.0992 375.949L56.578 376.703L57.0203 377.484L57.4107 378.285L61.4855 388.335L65.7893 397.322C68.9899 403.078 141.047 456.15 141.047 456.15C141.047 456.15 178.454 473.214 256.443 473.214C334.433 473.214 371.84 456.15 371.84 456.15C371.84 456.15 443.897 403.078 447.097 397.322L451.407 388.335L455.481 378.285L455.866 377.484L456.309 376.703L456.793 375.949L457.329 375.225L457.906 374.538L458.531 373.883L459.192 373.269L459.889 372.691L460.623 372.16L464.266 369.844L467.019 367.851L469.642 365.702L472.129 363.402L474.466 360.961L476.641 358.385L478.655 355.689L479.608 354.232L480.466 352.728L481.226 351.167L481.892 349.569L482.449 347.935L482.902 346.275L483.256 344.583L483.5 342.876L483.631 341.164L488.85 228.583L488.892 226.116L488.772 223.655Z" fill="black"></path>
<path d="M341.872 278.894H319.863C317.11 278.894 314.878 281.132 314.878 283.885V299.055C314.878 301.818 313.78 304.472 311.823 306.429L310.423 307.829C308.466 309.786 305.812 310.879 303.049 310.879H209.837C207.074 310.879 204.42 309.786 202.463 307.829L201.063 306.429C199.106 304.472 198.008 301.818 198.008 299.055V283.885C198.008 281.132 195.776 278.894 193.017 278.894H171.014C168.261 278.894 166.023 281.132 166.023 283.885V305.888C166.023 308.646 168.261 310.879 171.014 310.879H187.584C190.348 310.879 193.002 311.977 194.959 313.933C196.915 315.89 198.008 318.544 198.008 321.308V337.404C198.008 340.407 200.465 342.863 203.467 342.863H203.483H309.403H309.413C312.421 342.863 314.878 340.407 314.878 337.404V321.308C314.878 318.544 315.971 315.89 317.927 313.933C319.884 311.977 322.538 310.879 325.302 310.879H341.872C344.625 310.879 346.862 308.646 346.862 305.888V283.885C346.862 281.132 344.625 278.894 341.872 278.894Z" fill="black"></path>
</svg><style>@media (prefers-color-scheme: light) { :root { filter: none; } }
@media (prefers-color-scheme: dark) { :root { filter: none; } }
</style></svg>