<svg viewBox="0 0 1420 862" fill="none" xmlns="http://www.w3.org/2000/svg">
<g filter="url(#filter0_f)">
<ellipse cx="711.5" cy="366.5" rx="277.5" ry="207.5" fill="url(#paint0_radial)"/>
</g>
<g style="mix-blend-mode:color-dodge" opacity="0.2" filter="url(#filter1_f)">
<ellipse rx="1023.46" ry="103.62" transform="matrix(1 -1.74846e-07 -1.74846e-07 -1 814.464 406.62)" fill="url(#paint1_linear)"/>
</g>
<g filter="url(#filter2_f)">
<ellipse cx="1494.5" cy="280.5" rx="377.5" ry="366.5" fill="url(#paint2_radial)" fill-opacity="0.2"/>
</g>
<g filter="url(#filter3_f)">
<ellipse cx="454.5" cy="-155.5" rx="606.5" ry="588.5" fill="url(#paint3_radial)" fill-opacity="0.2"/>
</g>
<circle cx="157" cy="339" r="1" fill="#2F506F"/>
<circle cx="507" cy="505" r="1" fill="#2F506F"/>
<circle cx="1125" cy="505" r="1" fill="#2F506F"/>
<circle cx="923" cy="155" r="1" fill="#2F506F"/>
<circle cx="1286" cy="596" r="1" fill="#7BA4C7"/>
<circle cx="433" cy="106" r="1" fill="#7BA4C7"/>
<circle cx="513" cy="792" r="1" fill="#7BA4C7"/>
<circle cx="1343" cy="114" r="1" fill="#7BA4C7"/>
<circle cx="31" cy="694" r="1" fill="#D1D7DC"/>
<circle cx="1204" cy="274" r="1" fill="#D1D7DC"/>
<circle cx="409" cy="188" r="1" fill="#D1D7DC"/>
<circle cx="1165" cy="110" r="1" fill="#D1D7DC"/>
<circle cx="862.5" cy="162.5" r="0.5" fill="white"/>
<circle cx="286.5" cy="264.5" r="0.5" fill="white"/>
<circle cx="529.5" cy="142.5" r="0.5" fill="white"/>
<circle cx="545.5" cy="172.5" r="0.5" fill="white"/>
<circle cx="1062.5" cy="831.5" r="0.5" fill="white"/>
<circle cx="795.5" cy="226.5" r="0.5" fill="white"/>
<circle cx="954.5" cy="517.5" r="0.5" fill="#547595"/>
<circle cx="212.5" cy="668.5" r="0.5" fill="#547595"/>
<circle cx="235.5" cy="407.5" r="0.5" fill="#547595"/>
<circle cx="1100.5" cy="319.5" r="0.5" fill="#2F506F"/>
<circle cx="1272.5" cy="472.5" r="0.5" fill="#2F506F"/>
<circle cx="591.5" cy="192.5" r="0.5" fill="#2F506F"/>
<circle cx="657.5" cy="115.5" r="0.5" fill="#2F506F"/>
<circle cx="272.5" cy="678.5" r="0.5" fill="#2F506F"/>
<circle cx="1199.5" cy="131.5" r="0.5" fill="#2F506F"/>
<circle cx="1334.5" cy="861.5" r="0.5" fill="#2F506F"/>
<circle cx="46.5" cy="254.5" r="0.5" fill="#2F506F"/>
<circle cx="280.5" cy="255.5" r="0.5" fill="#2F506F"/>
<circle cx="898.5" cy="255.5" r="0.5" fill="#2F506F"/>
<circle cx="539.5" cy="163.5" r="0.5" fill="#2F506F"/>
<circle cx="319.5" cy="278.5" r="0.5" fill="#193650"/>
<circle cx="562.5" cy="156.5" r="0.5" fill="#193650"/>
<circle cx="953.5" cy="308.5" r="0.5" fill="#193650"/>
<circle cx="271.5" cy="298.5" r="0.5" fill="#193650"/>
<circle cx="514.5" cy="176.5" r="0.5" fill="#193650"/>
<circle cx="905.5" cy="328.5" r="0.5" fill="#193650"/>
<circle cx="295.5" cy="262.5" r="0.5" fill="#193650"/>
<circle cx="913.5" cy="262.5" r="0.5" fill="#193650"/>
<circle cx="554.5" cy="170.5" r="0.5" fill="#193650"/>
<circle cx="1309.5" cy="168.5" r="0.5" fill="#193650"/>
<circle cx="489.5" cy="560.5" r="0.5" fill="white"/>
<circle cx="645.5" cy="636.5" r="0.5" fill="white"/>
<defs>
<filter id="filter0_f" x="404" y="129" width="615" height="475" filterUnits="userSpaceOnUse" color-interpolation-filters="sRGB">
<feFlood flood-opacity="0" result="BackgroundImageFix"/>
<feBlend mode="normal" in="SourceGraphic" in2="BackgroundImageFix" result="shape"/>
<feGaussianBlur stdDeviation="15" result="effect1_foregroundBlur"/>
</filter>
<filter id="filter1_f" x="-409" y="103" width="2446.93" height="607.24" filterUnits="userSpaceOnUse" color-interpolation-filters="sRGB">
<feFlood flood-opacity="0" result="BackgroundImageFix"/>
<feBlend mode="normal" in="SourceGraphic" in2="BackgroundImageFix" result="shape"/>
<feGaussianBlur stdDeviation="100" result="effect1_foregroundBlur"/>
</filter>
<filter id="filter2_f" x="1087" y="-116" width="815" height="793" filterUnits="userSpaceOnUse" color-interpolation-filters="sRGB">
<feFlood flood-opacity="0" result="BackgroundImageFix"/>
<feBlend mode="normal" in="SourceGraphic" in2="BackgroundImageFix" result="shape"/>
<feGaussianBlur stdDeviation="15" result="effect1_foregroundBlur"/>
</filter>
<filter id="filter3_f" x="-182" y="-774" width="1273" height="1237" filterUnits="userSpaceOnUse" color-interpolation-filters="sRGB">
<feFlood flood-opacity="0" result="BackgroundImageFix"/>
<feBlend mode="normal" in="SourceGraphic" in2="BackgroundImageFix" result="shape"/>
<feGaussianBlur stdDeviation="15" result="effect1_foregroundBlur"/>
</filter>
<radialGradient id="paint0_radial" cx="0" cy="0" r="1" gradientUnits="userSpaceOnUse" gradientTransform="translate(711.132 366.217) rotate(89.8986) scale(207.783 277.879)">
<stop stop-opacity="0.6"/>
<stop offset="1" stop-opacity="0"/>
</radialGradient>
<linearGradient id="paint1_linear" x1="348" y1="103.62" x2="873.182" y2="675.081" gradientUnits="userSpaceOnUse">
<stop stop-color="#E500FF"/>
<stop offset="0.582233"/>
<stop offset="1" stop-color="#42FF00"/>
</linearGradient>
<radialGradient id="paint2_radial" cx="0" cy="0" r="1" gradientUnits="userSpaceOnUse" gradientTransform="translate(1494.5 280.5) rotate(90) scale(366.5 377.5)">
<stop stop-color="#0000FF"/>
<stop offset="1" stop-color="#0000FF" stop-opacity="0"/>
</radialGradient>
<radialGradient id="paint3_radial" cx="0" cy="0" r="1" gradientUnits="userSpaceOnUse" gradientTransform="translate(453.697 -156.303) rotate(89.9219) scale(589.303 607.328)">
<stop stop-color="#DC1FFF"/>
<stop offset="1" stop-color="#09020C" stop-opacity="0"/>
</radialGradient>
</defs>
</svg>
