<svg width="68" height="68" viewBox="0 0 68 68" fill="none" xmlns="http://www.w3.org/2000/svg">
<path fill-rule="evenodd" clip-rule="evenodd" d="M32.1667 8.5C31.6145 8.5 31.1667 8.94772 31.1667 9.5V16C31.1667 16.5523 31.6145 17 32.1667 17H35.8334C36.3857 17 36.8334 16.5523 36.8334 16V9.5C36.8334 8.94772 36.3857 8.5 35.8334 8.5H32.1667ZM32.1667 22.6667C31.6145 22.6667 31.1667 23.1144 31.1667 23.6667V30.1667C31.1667 30.719 31.6145 31.1667 32.1667 31.1667H35.8334C36.3857 31.1667 36.8334 30.719 36.8334 30.1667V23.6667C36.8334 23.1144 36.3857 22.6667 35.8334 22.6667H32.1667ZM31.1667 37.8333C31.1667 37.2811 31.6145 36.8333 32.1667 36.8333H35.8334C36.3857 36.8333 36.8334 37.2811 36.8334 37.8333V44.3333C36.8334 44.8856 36.3857 45.3333 35.8334 45.3333H32.1667C31.6145 45.3333 31.1667 44.8856 31.1667 44.3333V37.8333ZM32.1667 51C31.6145 51 31.1667 51.4477 31.1667 52V58.5C31.1667 59.0523 31.6145 59.5 32.1667 59.5H35.8334C36.3857 59.5 36.8334 59.0523 36.8334 58.5V52C36.8334 51.4477 36.3857 51 35.8334 51H32.1667Z" fill="#03E1FF"/>
<path opacity="0.3" fill-rule="evenodd" clip-rule="evenodd" d="M8.5 44.293C8.5 44.7123 8.98496 44.9454 9.31235 44.6835L22.1786 34.3904C22.4288 34.1903 22.4288 33.8097 22.1786 33.6096L9.31235 23.3166C8.98497 23.0547 8.5 23.2877 8.5 23.707V44.293ZM59.5 23.707C59.5 23.2877 59.015 23.0547 58.6877 23.3166L45.8214 33.6096C45.5712 33.8097 45.5712 34.1903 45.8214 34.3904L58.6877 44.6835C59.015 44.9454 59.5 44.7123 59.5 44.293V23.707Z" fill="#03E1FF"/>
</svg>
