<svg width="68" height="68" viewBox="0 0 68 68" fill="none" xmlns="http://www.w3.org/2000/svg">
<path d="M33.0659 46.9018C33.6127 47.3365 34.3871 47.3363 34.9336 46.9012L54.8533 31.0434L58.0182 28.5373C58.7755 27.9375 58.7768 26.7887 58.0207 26.1873L34.9337 7.82592C34.3871 7.39123 33.6129 7.39123 33.0663 7.82592L9.97483 26.1909C9.22015 26.7911 9.21966 27.9373 9.97383 28.5381L13.1183 31.0434L33.0659 46.9018Z" fill="#DC1FFF"/>
<path opacity="0.3" fill-rule="evenodd" clip-rule="evenodd" d="M34.9051 54.261C34.3586 54.6956 33.5845 54.6957 33.038 54.2612L14.2792 39.3478C13.6248 38.8276 12.6715 38.9426 12.1597 39.6035L10.8406 41.3069C10.3312 41.9647 10.4544 42.9114 11.1152 43.4168L33.0843 60.2198C33.6221 60.6312 34.3687 60.6312 34.9066 60.22L56.8832 43.4176C57.5446 42.9119 57.6676 41.9643 57.1573 41.3065L55.8122 39.5729C55.3001 38.9127 54.3473 38.7983 53.6934 39.3184L34.9051 54.261Z" fill="#DC1FFF"/>
</svg>
