<svg width="189" height="20" viewBox="0 0 189 20" fill="none" xmlns="http://www.w3.org/2000/svg">
<path d="M0 2.0881L0.438385 1.47888H3.01712L6.16317 16.2016H6.49841L9.87655 3.25577H12.9452L16.3234 16.2016H16.6586L19.8047 1.47888H22.3834L22.8218 2.0881L19.1084 18.9939H14.0541L11.398 8.66258L8.7677 18.9939H3.71338L0 2.0881Z" fill="white"/>
<path d="M55.8547 18.9939V1.47888H65.4337C68.2188 1.47888 69.6113 2.84962 69.6113 5.5911V8.4595C69.6113 10.6087 68.7517 11.9117 67.0326 12.3687L70.127 18.3339L69.7402 18.9939H67.0584L63.7576 12.5717H59.0008V18.9939H55.8547ZM59.0008 9.77948H65.3306C66.087 9.77948 66.4652 9.40718 66.4652 8.66258V5.38803C66.4652 4.64343 66.087 4.27113 65.3306 4.27113H59.0008V9.77948Z" fill="white"/>
<path d="M106.277 18.9939V1.47888H109.423V8.51027H118.911V1.47888H122.057V18.9939H118.911V11.3025H109.423V18.9939H106.277Z" fill="white"/>
<path d="M155.535 18.9939V1.47888H158.681V16.2016H166.726V18.9939H155.535Z" fill="white"/>
<path d="M174.495 18.9939V1.47888H188.444V4.27113H177.642V8.51027H184.479V11.3025H177.642V16.2016H188.444V18.9939H174.495Z" fill="white"/>
<path d="M98.4443 18.3847L98.006 18.9939L95.4272 18.9939L92.2812 4.27113L91.9459 4.27113L88.5678 17.217L85.4991 17.217L82.121 4.27113L81.7857 4.27113L78.6397 18.9939L76.0609 18.9939L75.6226 18.3847L79.3359 1.47888L84.3902 1.47888L87.0463 11.8102L89.6766 1.47888L94.731 1.47888L98.4443 18.3847Z" fill="white"/>
<path fill-rule="evenodd" clip-rule="evenodd" d="M36.9613 3.92487L32.7533 8.067C31.6688 9.13457 31.6688 10.8654 32.7533 11.933L36.9613 16.0751C38.0458 17.1427 39.8042 17.1427 40.8887 16.0751L45.0966 11.933C46.1811 10.8654 46.1811 9.13457 45.0966 8.067L40.8887 3.92487C39.8042 2.8573 38.0458 2.8573 36.9613 3.92487ZM30.5091 5.85787C28.1851 8.1455 28.1851 11.8545 30.5091 14.1421L34.717 18.2843C37.041 20.5719 40.8089 20.5719 43.1329 18.2843L47.3408 14.1421C49.6648 11.8545 49.6648 8.1455 47.3408 5.85786L43.1329 1.71573C40.8089 -0.57191 37.041 -0.571909 34.717 1.71573L30.5091 5.85787Z" fill="#DC1FFF"/>
<path fill-rule="evenodd" clip-rule="evenodd" d="M136.621 3.92487L132.413 8.067C131.329 9.13457 131.329 10.8654 132.413 11.933L136.621 16.0751C137.706 17.1427 139.464 17.1427 140.549 16.0751L144.757 11.933C145.841 10.8654 145.841 9.13457 144.757 8.067L140.549 3.92487C139.464 2.8573 137.706 2.8573 136.621 3.92487ZM130.169 5.85787C127.845 8.1455 127.845 11.8545 130.169 14.1421L134.377 18.2843C136.701 20.5719 140.469 20.5719 142.793 18.2843L147.001 14.1421C149.325 11.8545 149.325 8.1455 147.001 5.85786L142.793 1.71573C140.469 -0.57191 136.701 -0.571909 134.377 1.71573L130.169 5.85787Z" fill="#00FFA3"/>
</svg>
