<?xml version="1.0" encoding="utf-8"?>
<svg id="Layer_1" data-name="Layer 1" viewBox="-59.3785 -106.3285 556.157 556.157" xmlns="http://www.w3.org/2000/svg" xmlns:xlink="http://www.w3.org/1999/xlink">
  <defs>
    <linearGradient id="linear-gradient" x1="356.08" y1="587.72" x2="79.98" y2="587.72" gradientTransform="translate(0.2 -426.32)" gradientUnits="userSpaceOnUse">
      <stop offset="0" stop-color="#4171f7"/>
      <stop offset="1" stop-color="#f74bda"/>
    </linearGradient>
    <linearGradient id="linear-gradient-2" x1="97.56" y1="659.11" x2="184.1" y2="606.57" gradientTransform="translate(0.2 -426.32)" gradientUnits="userSpaceOnUse">
      <stop offset="0" stop-color="#f14cdb" stop-opacity="0.03"/>
      <stop offset="0" stop-color="#fff" stop-opacity="0"/>
      <stop offset="1" stop-color="#fff" stop-opacity="0.4"/>
    </linearGradient>
    <linearGradient id="linear-gradient-3" x1="230.55" y1="599.05" x2="340.79" y2="654.69" gradientTransform="translate(0.2 -426.32)" gradientUnits="userSpaceOnUse">
      <stop offset="0" stop-color="#231f20" stop-opacity="0.4"/>
      <stop offset="1" stop-color="#231f20" stop-opacity="0"/>
    </linearGradient>
    <linearGradient id="linear-gradient-4" x1="274.82" y1="604.49" x2="301.98" y2="739.5" gradientTransform="translate(0.2 -426.32)" gradientUnits="userSpaceOnUse">
      <stop offset="0" stop-color="#eae8fc"/>
      <stop offset="0.52" stop-color="#f7f7fe"/>
      <stop offset="1" stop-color="#fff"/>
    </linearGradient>
    <linearGradient id="linear-gradient-5" x1="401.93" y1="629.2" x2="375.49" y2="739.86" gradientTransform="translate(0.2 -426.32)" gradientUnits="userSpaceOnUse">
      <stop offset="0" stop-color="#dad4f4"/>
      <stop offset="0.65" stop-color="#f1effb"/>
      <stop offset="1" stop-color="#fff"/>
    </linearGradient>
    <linearGradient id="linear-gradient-6" x1="32.22" y1="604.49" x2="59.38" y2="739.5" xlink:href="#linear-gradient-4"/>
    <linearGradient id="linear-gradient-7" x1="159.33" y1="629.2" x2="132.9" y2="739.86" xlink:href="#linear-gradient-5"/>
  </defs>
  <circle style="fill: rgb(1, 6, 13);" cx="218.7" cy="171.75" r="278.079" transform="matrix(1, 0, 0, 1, 0, 0)" />
  <g>
    <polygon points="357.6 241.6 357.6 81.1 218.6 0.9 79.6 81.1 79.6 241.6 218.6 321.9 357.6 241.6" fill="url(#linear-gradient)"/>
    <polygon points="218.5 161.7 79.6 81.5 79.6 241.6 218.5 321.8 218.5 161.7" opacity="0.56" fill="url(#linear-gradient-2)" style="isolation: isolate"/>
    <polygon points="218.5 321.8 218.6 321.9 357.6 241.6 357.6 81.5 357.5 81.4 218.5 161.7 218.5 321.8" opacity="0.56" fill="url(#linear-gradient-3)" style="isolation: isolate"/>
    <polygon points="340 118.6 242.6 174.8 242.6 287.2 340 343.5 437.4 287.2 437.4 174.8 340 118.6" fill="#fff"/>
    <polygon points="97.4 118.6 0 174.8 0 287.2 97.4 343.5 194.8 287.2 194.8 174.8 97.4 118.6" fill="#fff"/>
  </g>
  <polygon points="340 231 242.6 174.8 340 118.6 437.4 174.8 340 231" fill="#fff"/>
  <polygon points="340 343.5 242.6 287.2 242.6 174.8 340 231 340 343.5" fill="url(#linear-gradient-4)"/>
  <polygon points="437.4 287.2 340 343.5 340 231 437.4 174.8 437.4 287.2" fill="url(#linear-gradient-5)"/>
  <polygon points="97.4 231 0 174.8 97.4 118.6 194.8 174.8 97.4 231" fill="#fff"/>
  <polygon points="97.4 343.5 0 287.2 0 174.8 97.4 231 97.4 343.5" fill="url(#linear-gradient-6)"/>
  <polygon points="194.8 287.2 97.4 343.5 97.4 231 194.8 174.8 194.8 287.2" fill="url(#linear-gradient-7)"/>
</svg>