<svg width="816" height="87" viewBox="0 0 816 87" fill="none" xmlns="http://www.w3.org/2000/svg">
<g filter="url(#filter0_b)">
<path d="M424.384 82.9999L426.282 80.3217L410.202 6.00001L388.316 6.00001L376.927 51.4188L365.425 6L343.539 6L327.459 80.3217L329.358 82.9999H340.524L354.147 18.2754H355.599L370.227 75.1883H383.515L398.143 18.2754H399.594L413.217 82.9999H424.384Z" fill="url(#paint0_linear)"/>
<path d="M0 8.67833L1.89829 6.00007H13.0647L26.6877 70.7246H28.1393L42.7673 13.8117H56.0554L70.6833 70.7246H72.135L85.758 6.00007H96.9244L98.8227 8.67833L82.743 83H60.8569L49.3555 37.5812L37.9658 83H16.0796L0 8.67833Z" fill="url(#paint1_linear)"/>
<path fill-rule="evenodd" clip-rule="evenodd" d="M241.862 83V6.00007H283.341C295.4 6.00007 301.43 12.0261 301.43 24.0783V36.6884C301.43 46.1367 297.708 51.8652 290.264 53.8739L303.663 80.0985L301.988 83H290.375L276.082 54.7667H255.485V83H241.862ZM255.485 42.4913H282.894C286.169 42.4913 287.807 40.8546 287.807 37.5812V23.1856C287.807 19.9121 286.169 18.2754 282.894 18.2754H255.485V42.4913Z" fill="url(#paint2_linear)"/>
<path d="M460.199 6.00007V83H473.822V49.187H514.906V83H528.529V6.00007H514.906V36.9116H473.822V6.00007H460.199Z" fill="url(#paint3_linear)"/>
<path d="M673.495 83V6.00007H687.117V70.7246H721.957V83H673.495Z" fill="url(#paint4_linear)"/>
<path d="M755.598 6.00007V83H816V70.7246H769.221V49.187H798.827V36.9116H769.221V18.2754H816V6.00007H755.598Z" fill="url(#paint5_linear)"/>
</g>
<path fill-rule="evenodd" clip-rule="evenodd" d="M159.495 17.0732L141.269 35.0915C136.572 39.7354 136.572 47.2646 141.269 51.9085L159.495 69.9268C164.192 74.5707 171.808 74.5707 176.505 69.9268L194.731 51.9085C199.428 47.2646 199.428 39.7354 194.731 35.0915L176.505 17.0732C171.808 12.4293 164.192 12.4293 159.495 17.0732ZM131.549 25.4817C121.484 35.4329 121.484 51.5671 131.549 61.5183L149.775 79.5366C159.84 89.4878 176.16 89.4878 186.225 79.5366L204.451 61.5183C214.516 51.5671 214.516 35.4329 204.451 25.4817L186.225 7.46342C176.16 -2.48781 159.84 -2.48781 149.775 7.46342L131.549 25.4817Z" fill="#DC1FFF"/>
<path fill-rule="evenodd" clip-rule="evenodd" d="M591.495 17.0732L573.269 35.0915C568.572 39.7354 568.572 47.2646 573.269 51.9085L591.495 69.9268C596.192 74.5707 603.808 74.5707 608.505 69.9268L626.731 51.9085C631.428 47.2646 631.428 39.7354 626.731 35.0915L608.505 17.0732C603.808 12.4293 596.192 12.4293 591.495 17.0732ZM563.549 25.4817C553.484 35.4329 553.484 51.5671 563.549 61.5183L581.775 79.5366C591.84 89.4878 608.16 89.4878 618.225 79.5366L636.451 61.5183C646.516 51.5671 646.516 35.4329 636.451 25.4817L618.225 7.46342C608.16 -2.48781 591.84 -2.48781 581.775 7.46342L563.549 25.4817Z" fill="#00FFA3"/>
<defs>
<filter id="filter0_b" x="-6" y="0" width="828" height="89" filterUnits="userSpaceOnUse" color-interpolation-filters="sRGB">
<feFlood flood-opacity="0" result="BackgroundImageFix"/>
<feGaussianBlur stdDeviation="3"/>
<feComposite in2="SourceAlpha" operator="in" result="effect1_backgroundBlur"/>
<feBlend mode="normal" in="SourceGraphic" in2="effect1_backgroundBlur" result="shape"/>
</filter>
<linearGradient id="paint0_linear" x1="408" y1="-22" x2="408" y2="104.791" gradientUnits="userSpaceOnUse">
<stop stop-color="white"/>
<stop offset="1" stop-color="#010202" stop-opacity="0"/>
</linearGradient>
<linearGradient id="paint1_linear" x1="408" y1="-22" x2="408" y2="104.791" gradientUnits="userSpaceOnUse">
<stop stop-color="white"/>
<stop offset="1" stop-color="#010202" stop-opacity="0"/>
</linearGradient>
<linearGradient id="paint2_linear" x1="408" y1="-22" x2="408" y2="104.791" gradientUnits="userSpaceOnUse">
<stop stop-color="white"/>
<stop offset="1" stop-color="#010202" stop-opacity="0"/>
</linearGradient>
<linearGradient id="paint3_linear" x1="408" y1="-22" x2="408" y2="104.791" gradientUnits="userSpaceOnUse">
<stop stop-color="white"/>
<stop offset="1" stop-color="#010202" stop-opacity="0"/>
</linearGradient>
<linearGradient id="paint4_linear" x1="408" y1="-22" x2="408" y2="104.791" gradientUnits="userSpaceOnUse">
<stop stop-color="white"/>
<stop offset="1" stop-color="#010202" stop-opacity="0"/>
</linearGradient>
<linearGradient id="paint5_linear" x1="408" y1="-22" x2="408" y2="104.791" gradientUnits="userSpaceOnUse">
<stop stop-color="white"/>
<stop offset="1" stop-color="#010202" stop-opacity="0"/>
</linearGradient>
</defs>
</svg>
