<svg width="816" height="176" viewBox="0 0 816 176" fill="none" xmlns="http://www.w3.org/2000/svg">
<g filter="url(#filter0_b)">
<path d="M424.384 172L426.282 169.322L410.202 95L388.316 95L376.927 140.419L365.425 95L343.539 95L327.459 169.322L329.358 172H340.524L354.147 107.275H355.599L370.227 164.188H383.515L398.143 107.275H399.594L413.217 172H424.384Z" fill="url(#paint0_linear)"/>
<path d="M0 97.6783L1.89829 95.0001H13.0647L26.6877 159.725H28.1393L42.7673 102.812H56.0554L70.6833 159.725H72.135L85.758 95.0001H96.9244L98.8227 97.6783L82.743 172H60.8569L49.3555 126.581L37.9658 172H16.0796L0 97.6783Z" fill="url(#paint1_linear)"/>
<path fill-rule="evenodd" clip-rule="evenodd" d="M241.862 172V95.0001H283.341C295.4 95.0001 301.43 101.026 301.43 113.078V125.688C301.43 135.137 297.708 140.865 290.264 142.874L303.663 169.099L301.988 172H290.375L276.082 143.767H255.485V172H241.862ZM255.485 131.491H282.894C286.169 131.491 287.807 129.855 287.807 126.581V112.186C287.807 108.912 286.169 107.275 282.894 107.275H255.485V131.491Z" fill="url(#paint2_linear)"/>
<path d="M460.199 95.0001V172H473.822V138.187H514.906V172H528.529V95.0001H514.906V125.912H473.822V95.0001H460.199Z" fill="url(#paint3_linear)"/>
<path d="M673.495 172V95.0001H687.117V159.725H721.957V172H673.495Z" fill="url(#paint4_linear)"/>
<path d="M755.598 95.0001V172H816V159.725H769.221V138.187H798.827V125.912H769.221V107.275H816V95.0001H755.598Z" fill="url(#paint5_linear)"/>
</g>
<path fill-rule="evenodd" clip-rule="evenodd" d="M159.495 106.073L141.269 124.091C136.572 128.735 136.572 136.265 141.269 140.909L159.495 158.927C164.192 163.571 171.808 163.571 176.505 158.927L194.731 140.909C199.428 136.265 199.428 128.735 194.731 124.091L176.505 106.073C171.808 101.429 164.192 101.429 159.495 106.073ZM131.549 114.482C121.484 124.433 121.484 140.567 131.549 150.518L149.775 168.537C159.84 178.488 176.16 178.488 186.225 168.537L204.451 150.518C214.516 140.567 214.516 124.433 204.451 114.482L186.225 96.4634C176.16 86.5122 159.84 86.5122 149.775 96.4634L131.549 114.482Z" fill="#DC1FFF"/>
<path fill-rule="evenodd" clip-rule="evenodd" d="M591.495 106.073L573.269 124.091C568.572 128.735 568.572 136.265 573.269 140.909L591.495 158.927C596.192 163.571 603.808 163.571 608.505 158.927L626.731 140.909C631.428 136.265 631.428 128.735 626.731 124.091L608.505 106.073C603.808 101.429 596.192 101.429 591.495 106.073ZM563.549 114.482C553.484 124.433 553.484 140.567 563.549 150.518L581.775 168.537C591.84 178.488 608.16 178.488 618.225 168.537L636.451 150.518C646.516 140.567 646.516 124.433 636.451 114.482L618.225 96.4634C608.16 86.5122 591.84 86.5122 581.775 96.4634L563.549 114.482Z" fill="#00FFA3"/>
<path d="M149.811 12H156.924V10.75H151.22V6.79545H156.47V5.54545H151.22V1.61364H156.833V0.363636H149.811V12ZM171.537 1.61364H175.196V12H176.605V1.61364H180.264V0.363636H171.537V1.61364ZM195.239 12H196.648V6.79545H202.852V12H204.261V0.363636H202.852V5.54545H196.648V0.363636H195.239V12ZM219.883 12H226.996V10.75H221.292V6.79545H226.542V5.54545H221.292V1.61364H226.905V0.363636H219.883V12ZM242.245 12H243.654V7.45455H246.2C246.302 7.45455 246.398 7.45455 246.495 7.44886L248.95 12H250.586L247.955 7.19318C249.438 6.6875 250.131 5.47727 250.131 3.93182C250.131 1.875 248.904 0.363636 246.177 0.363636H242.245V12ZM243.654 6.18182V1.61364H246.131C248.018 1.61364 248.745 2.53409 248.745 3.93182C248.745 5.32955 248.018 6.18182 246.154 6.18182H243.654ZM265.279 12H272.393V10.75H266.688V6.79545H271.938V5.54545H266.688V1.61364H272.302V0.363636H265.279V12ZM295.278 0.363636V7.95455C295.278 9.65909 294.108 10.8864 292.165 10.8864C290.221 10.8864 289.051 9.65909 289.051 7.95455V0.363636H287.642V8.06818C287.642 10.4545 289.426 12.2045 292.165 12.2045C294.903 12.2045 296.687 10.4545 296.687 8.06818V0.363636H295.278ZM312.301 0.363636V12H313.619V3.15909H313.733L317.369 12H318.642L322.279 3.15909H322.392V12H323.71V0.363636H322.029L318.074 10.0227H317.938L313.983 0.363636H312.301ZM359.863 9.95455H361.136V6.84091H364.249V5.56818H361.136V2.45455H359.863V5.56818H356.749V6.84091H359.863V9.95455ZM403.646 3.27273H405.01C404.947 1.51705 403.328 0.204545 401.078 0.204545C398.851 0.204545 397.101 1.5 397.101 3.45455C397.101 5.02273 398.237 5.95455 400.055 6.47727L401.487 6.88636C402.714 7.22727 403.805 7.65909 403.805 8.81818C403.805 10.0909 402.578 10.9318 400.964 10.9318C399.578 10.9318 398.351 10.3182 398.237 9H396.783C396.919 10.9091 398.464 12.2045 400.964 12.2045C403.646 12.2045 405.169 10.7273 405.169 8.84091C405.169 6.65909 403.101 5.95455 401.896 5.63636L400.714 5.31818C399.851 5.09091 398.464 4.63636 398.464 3.38636C398.464 2.27273 399.487 1.45455 401.033 1.45455C402.442 1.45455 403.51 2.125 403.646 3.27273ZM430.104 6.18182C430.104 2.5 427.945 0.204545 424.967 0.204545C421.99 0.204545 419.831 2.5 419.831 6.18182C419.831 9.86364 421.99 12.1591 424.967 12.1591C427.945 12.1591 430.104 9.86364 430.104 6.18182ZM428.74 6.18182C428.74 9.20455 427.081 10.8409 424.967 10.8409C422.854 10.8409 421.195 9.20455 421.195 6.18182C421.195 3.15909 422.854 1.52273 424.967 1.52273C427.081 1.52273 428.74 3.15909 428.74 6.18182ZM445.273 12H452.091V10.75H446.682V0.363636H445.273V12ZM468.285 12L469.455 8.70455H474.16L475.33 12H476.808L472.535 0.363636H471.08L466.808 12H468.285ZM469.898 7.45455L471.762 2.20455H471.853L473.717 7.45455H469.898ZM500.647 0.363636H499.261V9.52273H499.147L492.784 0.363636H491.42V12H492.829V2.86364H492.943L499.284 12H500.647V0.363636ZM516.744 12L517.915 8.70455H522.619L523.79 12H525.267L520.994 0.363636H519.54L515.267 12H516.744ZM518.358 7.45455L520.221 2.20455H520.312L522.176 7.45455H518.358ZM557.179 12H561.384C564.134 12 565.27 10.6591 565.27 8.90909C565.27 7.06818 563.998 6.06818 562.929 6V5.88636C563.929 5.61364 564.816 4.95455 564.816 3.45455C564.816 1.75 563.679 0.363636 561.248 0.363636H557.179V12ZM558.588 10.75V6.70455H561.452C562.975 6.70455 563.929 7.72727 563.929 8.90909C563.929 9.93182 563.225 10.75 561.384 10.75H558.588ZM558.588 5.47727V1.61364H561.248C562.793 1.61364 563.475 2.43182 563.475 3.45455C563.475 4.68182 562.475 5.47727 561.202 5.47727H558.588ZM580.386 12H581.795V7.45455H584.34C584.442 7.45455 584.539 7.45455 584.636 7.44886L587.09 12H588.727L586.096 7.19318C587.579 6.6875 588.272 5.47727 588.272 3.93182C588.272 1.875 587.045 0.363636 584.317 0.363636H580.386V12ZM581.795 6.18182V1.61364H584.272C586.158 1.61364 586.886 2.53409 586.886 3.93182C586.886 5.32955 586.158 6.18182 584.295 6.18182H581.795ZM604.829 0.363636H603.42V12H604.829V0.363636ZM624.045 12C627.591 12 629.591 9.79545 629.591 6.15909C629.591 2.54545 627.591 0.363636 624.204 0.363636H620.454V12H624.045ZM621.864 10.75V1.61364H624.114C626.841 1.61364 628.227 3.34091 628.227 6.15909C628.227 9 626.841 10.75 623.954 10.75H621.864ZM652.709 4H654.163C653.732 1.75 651.845 0.204545 649.391 0.204545C646.408 0.204545 644.3 2.5 644.3 6.18182C644.3 9.86364 646.391 12.1591 649.482 12.1591C652.254 12.1591 654.232 10.3125 654.232 7.43182V6.18182H649.8V7.43182H652.868C652.828 9.52273 651.453 10.8409 649.482 10.8409C647.323 10.8409 645.663 9.20455 645.663 6.18182C645.663 3.15909 647.323 1.52273 649.391 1.52273C651.073 1.52273 652.215 2.47159 652.709 4ZM669.445 12H676.559V10.75H670.854V6.79545H676.104V5.54545H670.854V1.61364H676.468V0.363636H669.445V12Z" fill="url(#paint6_linear)"/>
<defs>
<filter id="filter0_b" x="-6" y="89" width="828" height="89" filterUnits="userSpaceOnUse" color-interpolation-filters="sRGB">
<feFlood flood-opacity="0" result="BackgroundImageFix"/>
<feGaussianBlur  stdDeviation="3"/>
<feComposite in2="SourceAlpha" operator="in" result="effect1_backgroundBlur"/>
<feBlend mode="normal" in="SourceGraphic" in2="effect1_backgroundBlur" result="shape"/>
</filter>
<linearGradient id="paint0_linear" x1="408" y1="67" x2="408" y2="193.791" gradientUnits="userSpaceOnUse">
<stop stop-color="white"/>
<stop offset="1" stop-color="#010202" stop-opacity="0"/>
</linearGradient>
<linearGradient id="paint1_linear" x1="408" y1="67" x2="408" y2="193.791" gradientUnits="userSpaceOnUse">
<stop stop-color="white"/>
<stop offset="1" stop-color="#010202" stop-opacity="0"/>
</linearGradient>
<linearGradient id="paint2_linear" x1="408" y1="67" x2="408" y2="193.791" gradientUnits="userSpaceOnUse">
<stop stop-color="white"/>
<stop offset="1" stop-color="#010202" stop-opacity="0"/>
</linearGradient>
<linearGradient id="paint3_linear" x1="408" y1="67" x2="408" y2="193.791" gradientUnits="userSpaceOnUse">
<stop stop-color="white"/>
<stop offset="1" stop-color="#010202" stop-opacity="0"/>
</linearGradient>
<linearGradient id="paint4_linear" x1="408" y1="67" x2="408" y2="193.791" gradientUnits="userSpaceOnUse">
<stop stop-color="white"/>
<stop offset="1" stop-color="#010202" stop-opacity="0"/>
</linearGradient>
<linearGradient id="paint5_linear" x1="408" y1="67" x2="408" y2="193.791" gradientUnits="userSpaceOnUse">
<stop stop-color="white"/>
<stop offset="1" stop-color="#010202" stop-opacity="0"/>
</linearGradient>
<linearGradient id="paint6_linear" x1="132.986" y1="16" x2="708.028" y2="16" gradientUnits="userSpaceOnUse">
<stop offset="0.130208" stop-color="#DC1FFF"/>
<stop offset="0.5" stop-color="#4DA9FF"/>
<stop offset="0.885417" stop-color="#00CC82"/>
</linearGradient>
</defs>
</svg>
